<svg width="32" height="33" viewBox="0 0 32 33" fill="none" xmlns="http://www.w3.org/2000/svg">
  <path d="M20.2297 9.8342L11.4484 18.6155C11.1937 18.8615 10.9905 19.1558 10.8507 19.4811C10.711 19.8065 10.6374 20.1564 10.6344 20.5105C10.6313 20.8645 10.6987 21.2157 10.8328 21.5434C10.9669 21.8711 11.1649 22.1689 11.4153 22.4193C11.6657 22.6696 11.9634 22.8676 12.2911 23.0017C12.6189 23.1358 12.97 23.2033 13.3241 23.2002C13.6782 23.1971 14.0281 23.1236 14.3534 22.9838C14.6788 22.844 14.973 22.6409 15.219 22.3862L23.771 13.6049C24.7425 12.599 25.2801 11.2518 25.2679 9.8534C25.2558 8.45501 24.6949 7.11735 23.706 6.1285C22.7172 5.13966 21.3795 4.57876 19.9812 4.56661C18.5828 4.55446 17.2356 5.09203 16.2297 6.06354L7.67635 14.8435C6.17593 16.344 5.33301 18.379 5.33301 20.5009C5.33301 22.6228 6.17593 24.6578 7.67635 26.1582C9.17677 27.6586 11.2118 28.5015 13.3337 28.5015C15.4556 28.5015 17.4906 27.6586 18.991 26.1582L27.3337 17.8342" stroke="#EC503C" stroke-width="1.5" stroke-linecap="round" stroke-linejoin="round" />
</svg>