<svg width="168" height="40" viewBox="0 0 168 40" fill="none" xmlns="http://www.w3.org/2000/svg">
<path fill-rule="evenodd" clip-rule="evenodd" d="M67.2576 19.1999C65.8313 19.1999 64.5074 18.9587 63.2865 18.4758C62.065 17.993 61.0084 17.3185 60.1172 16.4512C59.2255 15.5845 58.5302 14.5699 58.0314 13.4077C57.5319 12.2462 57.2825 10.9766 57.2825 9.60022C57.2825 8.22382 57.5319 6.95485 58.0314 5.79213C58.5302 4.6306 59.2255 3.6159 60.1172 2.74863C61.0084 1.88196 62.0602 1.20689 63.2734 0.724016C64.4854 0.241736 65.8135 0 67.2576 0C68.6839 0 69.9989 0.237558 71.2026 0.710885C72.4056 1.18481 73.4575 1.8551 74.3582 2.72177C75.2582 3.58904 75.9535 4.60374 76.444 5.76527C76.934 6.92799 77.1792 8.20591 77.1792 9.60022C77.1792 10.9945 76.934 12.2725 76.444 13.4346C75.9535 14.5973 75.2582 15.6114 74.3582 16.4781C73.4575 17.3453 72.4056 18.0156 71.2026 18.489C69.9989 18.9629 68.6839 19.1999 67.2576 19.1999ZM67.2576 16.8129C68.2916 16.8129 69.25 16.6351 70.1329 16.2769C71.0151 15.9194 71.7818 15.415 72.4324 14.762C73.0831 14.1097 73.5914 13.3451 73.9569 12.4694C74.3224 11.5932 74.5052 10.637 74.5052 9.60022C74.5052 8.56344 74.3224 7.60724 73.9569 6.73102C73.5914 5.8554 73.0831 5.09079 72.4324 4.4384C71.7818 3.78601 71.0151 3.28105 70.1329 2.92292C69.25 2.56599 68.2916 2.38693 67.2576 2.38693C66.2058 2.38693 65.2384 2.56599 64.3562 2.92292C63.4734 3.28105 62.7025 3.78601 62.043 4.4384C61.3828 5.09079 60.8703 5.8554 60.5047 6.73102C60.1392 7.60724 59.9565 8.56344 59.9565 9.60022C59.9565 10.637 60.1392 11.5932 60.5047 12.4694C60.8703 13.3451 61.3828 14.1097 62.043 14.762C62.7025 15.415 63.4734 15.9194 64.3562 16.2769C65.2384 16.6351 66.2058 16.8129 67.2576 16.8129Z" fill="#111111"/>
<path fill-rule="evenodd" clip-rule="evenodd" d="M50.8642 0.992351C49.7051 0.474259 48.3056 0.214617 46.6656 0.214617H39.3645V18.9853H42.0391V13.2738H46.6656C47.0771 13.2738 47.4734 13.2575 47.8546 13.2248L51.8803 18.9853H54.7954L50.3547 12.7017C50.5294 12.6384 50.6992 12.5698 50.8642 12.496C52.0232 11.9773 52.9143 11.2312 53.5388 10.2571C54.1626 9.28302 54.4746 8.11612 54.4746 6.75762C54.4746 5.39912 54.1626 4.22804 53.5388 3.24498C52.9143 2.26192 52.0232 1.51104 50.8642 0.992351ZM50.4766 3.64728C49.5938 2.91431 48.2967 2.54782 46.5853 2.54782H42.0391V10.9943H46.5853C48.2967 10.9943 49.5938 10.6236 50.4766 9.88169C51.3588 9.13977 51.8005 8.09821 51.8005 6.75762C51.8005 5.41703 51.3588 4.38024 50.4766 3.64728Z" fill="#111111"/>
<path d="M25.9668 19.1999C23.5065 19.1999 21.5718 18.4937 20.1634 17.0815C18.755 15.6693 18.0507 13.6047 18.0507 10.8871V0.214876H20.7247V10.7797C20.7247 12.8717 21.1837 14.3997 22.1022 15.3655C23.0202 16.3306 24.3173 16.8129 25.9936 16.8129C27.6872 16.8129 28.9926 16.3306 29.9111 15.3655C30.8291 14.3997 31.2886 12.8717 31.2886 10.7797V0.214876H33.8829V10.8871C33.8829 13.6047 33.1828 15.6693 31.7833 17.0815C30.3832 18.4937 28.4444 19.1999 25.9668 19.1999Z" fill="#111111"/>
<path d="M85.7372 18.489C86.9498 18.9629 88.2778 19.1999 89.722 19.1999C91.0411 19.1999 92.3204 18.9987 93.5598 18.5964C94.7986 18.1941 95.882 17.6002 96.8094 16.8129V9.49279H94.242V15.6005C93.76 15.9174 93.2561 16.1653 92.7306 16.3444C91.812 16.6571 90.8542 16.8129 89.8559 16.8129C88.7862 16.8129 87.7969 16.6351 86.8873 16.2769C85.9777 15.9194 85.1889 15.415 84.5204 14.762C83.8519 14.1097 83.3346 13.3409 82.9691 12.4557C82.6036 11.5711 82.4209 10.6191 82.4209 9.60022C82.4209 8.56344 82.6036 7.60247 82.9691 6.71729C83.3346 5.83272 83.8519 5.06811 84.5204 4.42467C85.1889 3.78124 85.9824 3.28105 86.901 2.92292C87.8189 2.56599 88.813 2.38693 89.8827 2.38693C90.9346 2.38693 91.9103 2.56121 92.8109 2.90979C93.711 3.25837 94.5444 3.8081 95.3117 4.55897L96.9696 2.89606C96.1135 1.93091 95.0706 1.20689 93.8408 0.724016C92.6103 0.241736 91.2554 0 89.7756 0C88.3136 0 86.9765 0.237558 85.764 0.710885C84.5514 1.18481 83.4947 1.8551 82.5947 2.72177C81.6946 3.58904 80.9946 4.60374 80.4957 5.76527C79.9963 6.92799 79.7468 8.20591 79.7468 9.60022C79.7468 10.9945 79.9963 12.2725 80.4957 13.4346C80.9946 14.5973 81.6898 15.6114 82.5816 16.4781C83.4727 17.3453 84.5246 18.0156 85.7372 18.489Z" fill="#111111"/>
<path fill-rule="evenodd" clip-rule="evenodd" d="M123.445 0.214617L114.967 18.9853H117.722L119.778 14.2926H129.732L131.789 18.9853H134.597L126.093 0.214617H123.445ZM128.792 12.1475L124.755 2.93676L120.719 12.1475H128.792Z" fill="#111111"/>
<path d="M142.834 19.1999C141.408 19.1999 140.043 18.9814 138.742 18.5427C137.441 18.1052 136.416 17.5375 135.667 16.8398L136.656 14.7483C137.369 15.3744 138.278 15.8925 139.384 16.3038C140.489 16.715 141.639 16.9204 142.834 16.9204C143.921 16.9204 144.804 16.7956 145.481 16.5449C146.158 16.2948 146.658 15.951 146.979 15.5129C147.3 15.0748 147.46 14.5788 147.46 14.0249C147.46 13.3809 147.251 12.8628 146.832 12.4694C146.413 12.0761 145.869 11.7585 145.2 11.5174C144.532 11.2757 143.796 11.0662 142.994 10.8871C142.192 10.7086 141.385 10.4985 140.574 10.2574C139.762 10.0157 139.023 9.70766 138.354 9.33163C137.686 8.95619 137.147 8.45183 136.736 7.81675C136.326 7.18226 136.121 6.36454 136.121 5.36297C136.121 4.39782 136.375 3.50846 136.883 2.69491C137.392 1.88196 138.176 1.22957 139.237 0.737744C140.297 0.245915 141.648 0 143.289 0C144.376 0 145.454 0.143848 146.524 0.429157C147.594 0.715063 148.521 1.12631 149.306 1.66291L148.423 3.8081C147.621 3.2715 146.774 2.88293 145.882 2.6412C144.991 2.40006 144.126 2.27949 143.289 2.27949C142.236 2.27949 141.372 2.41378 140.694 2.68178C140.016 2.94978 139.522 3.30791 139.21 3.75438C138.898 4.20144 138.742 4.70222 138.742 5.25613C138.742 5.91747 138.951 6.44511 139.37 6.83786C139.789 7.23121 140.333 7.54457 141.002 7.77616C141.671 8.00894 142.406 8.21904 143.208 8.40646C144.01 8.59448 144.817 8.80518 145.629 9.03677C146.439 9.26955 147.179 9.57337 147.848 9.9488C148.516 10.3242 149.056 10.8244 149.466 11.4506C149.876 12.0761 150.081 12.8807 150.081 13.8637C150.081 14.8116 149.822 15.6914 149.306 16.5049C148.788 17.3185 147.991 17.9709 146.912 18.4621C145.833 18.9545 144.474 19.1999 142.834 19.1999Z" fill="#111111"/>
<path d="M155.349 18.5427C156.651 18.9814 158.015 19.1999 159.441 19.1999C161.081 19.1999 162.441 18.9545 163.519 18.4621C164.598 17.9709 165.396 17.3185 165.913 16.5049C166.43 15.6914 166.689 14.8116 166.689 13.8637C166.689 12.8807 166.483 12.0761 166.073 11.4506C165.663 10.8244 165.124 10.3242 164.455 9.9488C163.787 9.57337 163.047 9.26955 162.235 9.03677C161.424 8.80518 160.617 8.59448 159.815 8.40646C159.013 8.21904 158.278 8.00894 157.609 7.77616C156.941 7.54457 156.396 7.23121 155.978 6.83786C155.559 6.44511 155.349 5.91747 155.349 5.25613C155.349 4.70222 155.505 4.20144 155.817 3.75438C156.129 3.30791 156.624 2.94978 157.302 2.68178C157.979 2.41378 158.843 2.27949 159.896 2.27949C160.733 2.27949 161.598 2.40006 162.489 2.6412C163.381 2.88293 164.228 3.2715 165.03 3.8081L165.913 1.66291C165.128 1.12631 164.201 0.715063 163.131 0.429157C162.062 0.143848 160.983 0 159.896 0C158.255 0 156.905 0.245915 155.844 0.737744C154.783 1.22957 153.999 1.88196 153.491 2.69491C152.983 3.50846 152.728 4.39782 152.728 5.36297C152.728 6.36454 152.933 7.18226 153.344 7.81675C153.754 8.45183 154.293 8.95619 154.962 9.33163C155.63 9.70766 156.37 10.0157 157.181 10.2574C157.992 10.4985 158.799 10.7086 159.601 10.8871C160.404 11.0662 161.139 11.2757 161.808 11.5174C162.476 11.7585 163.02 12.0761 163.439 12.4694C163.858 12.8628 164.068 13.3809 164.068 14.0249C164.068 14.5788 163.907 15.0748 163.586 15.5129C163.265 15.951 162.766 16.2948 162.088 16.5449C161.411 16.7956 160.528 16.9204 159.441 16.9204C158.246 16.9204 157.096 16.715 155.991 16.3038C154.885 15.8925 153.976 15.3744 153.263 14.7483L152.274 16.8398C153.023 17.5375 154.048 18.1052 155.349 18.5427Z" fill="#111111"/>
<path d="M2.96757 16.6522H13.8791V18.9854H0.292969V0.214726H13.5047V2.54793H2.96757V8.3126H12.3546V10.5921H2.96757V16.6522Z" fill="#111111"/>
<path d="M101.916 18.9853V0.214617H104.591V16.6521H114.727V18.9853H101.916Z" fill="#111111"/>
<path d="M53.6918 39.9999C53.0834 39.9999 52.5012 39.9121 51.9452 39.7379C51.3892 39.563 50.9475 39.3379 50.6213 39.0628L51.122 37.9365C51.4333 38.1818 51.819 38.3859 52.2786 38.5495C52.7388 38.713 53.2096 38.7948 53.6918 38.7948C54.0996 38.7948 54.4294 38.7506 54.6818 38.6611C54.9342 38.5721 55.1193 38.4516 55.2383 38.2988C55.3568 38.1466 55.4163 37.9735 55.4163 37.7801C55.4163 37.5425 55.3306 37.3509 55.1604 37.2053C54.9895 37.0608 54.7693 36.9451 54.4984 36.8597C54.2276 36.7743 53.9269 36.6944 53.5971 36.6198C53.2674 36.5457 52.937 36.4586 52.6072 36.3577C52.2774 36.2568 51.9768 36.1273 51.7059 35.9674C51.4351 35.8074 51.2148 35.5937 51.044 35.3257C50.8731 35.0583 50.7886 34.7163 50.7886 34.2997C50.7886 33.8759 50.9011 33.4873 51.1273 33.134C51.3535 32.7806 51.6988 32.4983 52.1619 32.2864C52.6256 32.0745 53.2132 31.9683 53.9251 31.9683C54.3924 31.9683 54.8562 32.028 55.3163 32.1467C55.7759 32.2655 56.1765 32.4368 56.5176 32.66L56.0616 33.787C55.7128 33.578 55.3532 33.4241 54.9824 33.3238C54.6115 33.2235 54.2549 33.1728 53.9144 33.1728C53.5138 33.1728 53.1894 33.2217 52.9411 33.3178C52.6923 33.4151 52.5108 33.541 52.3959 33.6974C52.281 33.8532 52.2232 34.0317 52.2232 34.2328C52.2232 34.471 52.3066 34.662 52.4733 34.807C52.6405 34.9521 52.8596 35.0655 53.1298 35.1472C53.4007 35.229 53.7031 35.309 54.0365 35.3872C54.3704 35.4654 54.7026 35.5525 55.0324 35.6492C55.3622 35.7465 55.6628 35.8725 55.9336 36.0282C56.2039 36.1852 56.423 36.3965 56.5896 36.6645C56.7569 36.9319 56.8402 37.2709 56.8402 37.6798C56.8402 38.0958 56.7271 38.4808 56.5009 38.8342C56.2747 39.1875 55.9277 39.4699 55.4604 39.6817C54.9937 39.8936 54.4038 39.9999 53.6918 39.9999Z" fill="#111111"/>
<path d="M67.3086 37.3668L63.0142 32.0799H61.8236V39.8883H63.2589V34.6014L67.5532 39.8883H68.7432V32.0799H67.3086V37.3668Z" fill="#111111"/>
<path d="M74.4394 39.9999C73.8459 39.9999 73.2952 39.9008 72.7875 39.7044C72.2791 39.5069 71.838 39.2281 71.4636 38.8676C71.0885 38.5071 70.7974 38.0809 70.5903 37.5903C70.3825 37.0996 70.279 36.5642 70.279 35.9841C70.279 35.4039 70.3825 34.8685 70.5903 34.3779C70.7974 33.8872 71.0909 33.4611 71.4689 33.1005C71.8469 32.74 72.2886 32.4607 72.7928 32.2637C73.297 32.0667 73.8495 31.9683 74.4507 31.9683C75.0882 31.9683 75.6704 32.0781 76.1973 32.2977C76.7235 32.5168 77.1687 32.8421 77.5319 33.273L76.5979 34.1546C76.3157 33.8496 76.0008 33.621 75.652 33.4682C75.3031 33.3166 74.9251 33.2396 74.5174 33.2396C74.109 33.2396 73.7369 33.3071 73.3994 33.4408C73.0613 33.5745 72.7684 33.7643 72.5202 34.0096C72.272 34.2555 72.0791 34.5456 71.9422 34.8798C71.8047 35.2141 71.7362 35.5824 71.7362 35.9841C71.7362 36.3858 71.8047 36.7535 71.9422 37.0883C72.0791 37.4226 72.272 37.7126 72.5202 37.9586C72.7684 38.2039 73.0613 38.3937 73.3994 38.5274C73.7369 38.6611 74.109 38.7279 74.5174 38.7279C74.9251 38.7279 75.3031 38.6521 75.652 38.4993C76.0008 38.3471 76.3157 38.1143 76.5979 37.8022L77.5319 38.6945C77.1687 39.1183 76.7235 39.4424 76.1973 39.665C75.6704 39.8883 75.0847 39.9999 74.4394 39.9999Z" fill="#111111"/>
<path d="M92.94 36.6759L90.8551 38.6611H94.5306V39.8883H88.7903V38.9178L91.8834 35.9734C92.1424 35.7274 92.3352 35.512 92.4614 35.3257C92.5876 35.1401 92.671 34.9676 92.7121 34.8071C92.7525 34.6471 92.7734 34.4967 92.7734 34.3552C92.7734 33.9989 92.6507 33.7213 92.4061 33.5244C92.1614 33.3274 91.8013 33.2289 91.3268 33.2289C90.9488 33.2289 90.6053 33.2958 90.2976 33.4295C89.9898 33.5632 89.7249 33.7679 89.5023 34.043L88.4897 33.2623C88.7939 32.8535 89.2041 32.5353 89.7196 32.3085C90.2345 32.0823 90.8113 31.9683 91.4495 31.9683C92.0132 31.9683 92.5043 32.0596 92.9234 32.2417C93.3425 32.4243 93.6651 32.6822 93.8913 33.017C94.1175 33.3513 94.2306 33.7494 94.2306 34.2108C94.2306 34.4633 94.1973 34.7145 94.1306 34.9634C94.0634 35.2129 93.9377 35.4744 93.752 35.7495C93.5669 36.0247 93.296 36.3333 92.94 36.6759Z" fill="#111111"/>
<path fill-rule="evenodd" clip-rule="evenodd" d="M96.9502 39.5313C97.4437 39.8435 97.9979 39.9999 98.6134 39.9999C99.2367 39.9999 99.7927 39.8435 100.282 39.5313C100.772 39.2192 101.159 38.7637 101.445 38.1645C101.73 37.5664 101.873 36.8388 101.873 35.9841C101.873 35.1287 101.73 34.4023 101.445 33.8037C101.159 33.205 100.772 32.749 100.282 32.4368C99.7927 32.1246 99.2367 31.9683 98.6134 31.9683C97.9979 31.9683 97.4437 32.1246 96.9502 32.4368C96.4573 32.749 96.0698 33.205 95.7876 33.8037C95.5061 34.4023 95.365 35.1287 95.365 35.9841C95.365 36.8388 95.5061 37.5664 95.7876 38.1645C96.0698 38.7637 96.4573 39.2192 96.9502 39.5313ZM99.5593 38.4432C99.2921 38.6408 98.9766 38.7393 98.6134 38.7393C98.2646 38.7393 97.9556 38.6408 97.6848 38.4432C97.4139 38.2468 97.2026 37.9436 97.0502 37.5348C96.8984 37.1253 96.8222 36.6084 96.8222 35.9841C96.8222 35.3526 96.8984 34.8333 97.0502 34.428C97.2026 34.0227 97.4139 33.7213 97.6848 33.5243C97.9556 33.3274 98.2646 33.2289 98.6134 33.2289C98.9766 33.2289 99.2921 33.3274 99.5593 33.5243C99.826 33.7213 100.036 34.0227 100.188 34.428C100.34 34.8333 100.416 35.3526 100.416 35.9841C100.416 36.6084 100.34 37.1253 100.188 37.5348C100.036 37.9436 99.826 38.2468 99.5593 38.4432Z" fill="#111111"/>
<path fill-rule="evenodd" clip-rule="evenodd" d="M106.101 39.9999C105.485 39.9999 104.931 39.8435 104.437 39.5313C103.944 39.2192 103.556 38.7637 103.275 38.1645C102.993 37.5664 102.852 36.8388 102.852 35.9841C102.852 35.1287 102.993 34.4023 103.275 33.8037C103.556 33.205 103.944 32.749 104.437 32.4368C104.931 32.1246 105.485 31.9683 106.101 31.9683C106.724 31.9683 107.28 32.1246 107.769 32.4368C108.259 32.749 108.646 33.205 108.932 33.8037C109.217 34.4023 109.36 35.1287 109.36 35.9841C109.36 36.8388 109.217 37.5664 108.932 38.1645C108.646 38.7637 108.259 39.2192 107.769 39.5313C107.28 39.8435 106.724 39.9999 106.101 39.9999ZM106.101 38.7393C106.464 38.7393 106.779 38.6408 107.047 38.4432C107.313 38.2468 107.523 37.9436 107.675 37.5348C107.827 37.1253 107.903 36.6084 107.903 35.9841C107.903 35.3526 107.827 34.8333 107.675 34.428C107.523 34.0227 107.313 33.7213 107.047 33.5243C106.779 33.3274 106.464 33.2289 106.101 33.2289C105.752 33.2289 105.442 33.3274 105.172 33.5243C104.901 33.7213 104.689 34.0227 104.537 34.428C104.386 34.8333 104.31 35.3526 104.31 35.9841C104.31 36.6084 104.386 37.1253 104.537 37.5348C104.689 37.9436 104.901 38.2468 105.172 38.4432C105.442 38.6408 105.752 38.7393 106.101 38.7393Z" fill="#111111"/>
<path fill-rule="evenodd" clip-rule="evenodd" d="M111.897 39.548C112.401 39.8495 113.005 39.9999 113.71 39.9999C114.244 39.9999 114.726 39.8954 115.157 39.6871C115.586 39.4794 115.927 39.1851 116.18 38.8061C116.432 38.4265 116.558 37.9806 116.558 37.4679C116.558 36.9844 116.439 36.5625 116.202 36.2013C115.964 35.8414 115.646 35.5621 115.245 35.3651C114.845 35.1675 114.389 35.0697 113.877 35.0697C113.499 35.0697 113.148 35.1216 112.825 35.2254C112.503 35.3299 112.225 35.4839 111.991 35.6886C111.922 35.7493 111.857 35.8143 111.797 35.8837L111.797 35.8725C111.797 34.9879 112.012 34.3182 112.441 33.8646C112.872 33.4115 113.454 33.1841 114.188 33.1841C114.462 33.1841 114.724 33.2122 114.973 33.2677C115.221 33.3238 115.453 33.4223 115.668 33.5631L116.202 32.4702C115.949 32.2995 115.643 32.173 115.284 32.0912C114.924 32.0088 114.548 31.9683 114.155 31.9683C113.406 31.9683 112.744 32.1282 112.169 32.4482C111.594 32.7675 111.145 33.236 110.823 33.8532C110.5 34.471 110.339 35.2254 110.339 36.1178C110.339 36.9588 110.473 37.6649 110.74 38.2379C111.007 38.8103 111.392 39.2472 111.897 39.548ZM114.422 38.6999C114.192 38.8079 113.928 38.8622 113.632 38.8622C113.291 38.8622 113 38.8025 112.759 38.6838C112.518 38.565 112.334 38.4044 112.208 38.2039C112.082 38.0027 112.019 37.7837 112.019 37.5461C112.019 37.2853 112.087 37.0549 112.225 36.8543C112.362 36.6532 112.547 36.4956 112.781 36.3804C113.015 36.2646 113.287 36.2073 113.599 36.2073C114.073 36.2073 114.452 36.3261 114.733 36.5642C115.015 36.8024 115.157 37.1253 115.157 37.5348C115.157 37.8022 115.091 38.0367 114.961 38.2379C114.831 38.4378 114.652 38.5924 114.422 38.6999Z" fill="#111111"/>
<path d="M58.2753 32.0801H59.7218V39.8885H58.2753V32.0801Z" fill="#111111"/>
<path d="M84.7633 38.6723H80.3689V36.5194H84.1287V35.3256H80.3689V33.2956H84.6073V32.0798H78.9224V39.8882H84.7633V38.6723Z" fill="#111111"/>
<path d="M45.4599 37.2121H0V36.0499H45.4599V37.2121Z" fill="#111111"/>
<path d="M122.606 37.2121H168V36.0499H122.606V37.2121Z" fill="#111111"/>
</svg>
