<svg width="20" height="19" viewBox="0 0 20 19" fill="none" xmlns="http://www.w3.org/2000/svg">
  <path d="M7 17.5L1.553 14.776C1.38692 14.693 1.24722 14.5654 1.14955 14.4075C1.05188 14.2496 1.0001 14.0677 1 13.882V3.118C1.00009 2.94761 1.04372 2.78007 1.12674 2.63127C1.20977 2.48248 1.32944 2.35736 1.47439 2.26781C1.61935 2.17825 1.78479 2.12721 1.95501 2.11955C2.12522 2.11188 2.29458 2.14784 2.447 2.224L7 4.5M7 17.5V4.5M7 17.5L13 14.5M7 4.5L13 1.5M13 14.5L17.553 16.776C17.7054 16.8522 17.8748 16.8881 18.045 16.8805C18.2152 16.8728 18.3806 16.8218 18.5256 16.7322C18.6706 16.6426 18.7902 16.5175 18.8733 16.3687C18.9563 16.2199 18.9999 16.0524 19 15.882V5.118C18.9999 4.93234 18.9481 4.75037 18.8504 4.59247C18.7528 4.43458 18.6131 4.30699 18.447 4.224L13 1.5M13 14.5V1.5" stroke="#EC503C" stroke-width="2" stroke-linecap="round" stroke-linejoin="round" />
</svg>