<svg width="32" height="32" viewBox="0 0 32 32" fill="none" xmlns="http://www.w3.org/2000/svg">
<g clip-path="url(#clip0_0_4158)">
<path d="M29.3333 29.3333V4C29.3333 1.79467 27.5387 0 25.3333 0H6.66667C4.46133 0 2.66667 1.79467 2.66667 4V29.3333H0V32H32V29.3333H29.3333ZM26.6667 29.3333H17.3333V17.3333H26.6667V29.3333ZM26.6667 4V14.6667H17.3333V2.66667H25.3333C26.068 2.66667 26.6667 3.26533 26.6667 4ZM6.66667 2.66667H14.6667V14.6667H5.33333V4C5.33333 3.26533 5.932 2.66667 6.66667 2.66667ZM5.33333 17.3333H14.6667V29.3333H5.33333V17.3333Z" fill="white"/>
</g>
<defs>
<clipPath id="clip0_0_4158">
<rect width="32" height="32" fill="white"/>
</clipPath>
</defs>
</svg>
