<svg width="32" height="32" viewBox="0 0 32 32" fill="none" xmlns="http://www.w3.org/2000/svg">
<g clip-path="url(#clip0_0_4166)">
<path d="M29.3335 23.1347V8.86533C30.9041 8.11333 32.0001 6.52133 32.0001 4.66667C32.0001 2.09333 29.9068 0 27.3335 0C25.4788 0 23.8868 1.096 23.1348 2.66667H8.86546C8.11346 1.096 6.52146 0 4.66679 0C2.09346 0 0.00012207 2.09333 0.00012207 4.66667C0.00012207 6.52133 1.09612 8.11333 2.66679 8.86533V23.1347C1.09612 23.8867 0.00012207 25.4787 0.00012207 27.3333C0.00012207 29.9067 2.09346 32 4.66679 32C6.52146 32 8.11346 30.904 8.86546 29.3333H23.1348C23.8868 30.904 25.4788 32 27.3335 32C29.9068 32 32.0001 29.9067 32.0001 27.3333C32.0001 25.4787 30.9041 23.8867 29.3335 23.1347ZM27.3335 2.66667C28.4361 2.66667 29.3335 3.564 29.3335 4.66667C29.3335 5.76933 28.4361 6.66667 27.3335 6.66667C26.2308 6.66667 25.3335 5.76933 25.3335 4.66667C25.3335 3.564 26.2308 2.66667 27.3335 2.66667ZM4.66679 2.66667C5.76946 2.66667 6.66679 3.564 6.66679 4.66667C6.66679 5.76933 5.76946 6.66667 4.66679 6.66667C3.56412 6.66667 2.66679 5.76933 2.66679 4.66667C2.66679 3.564 3.56412 2.66667 4.66679 2.66667ZM4.66679 29.3333C3.56412 29.3333 2.66679 28.436 2.66679 27.3333C2.66679 26.2307 3.56412 25.3333 4.66679 25.3333C5.76946 25.3333 6.66679 26.2307 6.66679 27.3333C6.66679 28.436 5.76946 29.3333 4.66679 29.3333ZM22.7348 26.6667H9.26546C8.97079 24.6307 7.36812 23.0293 5.33346 22.7347V9.26533C7.36946 8.97067 8.97079 7.368 9.26546 5.33333H22.7335C23.0281 7.36933 24.6308 8.97067 26.6655 9.26533V22.7333C24.6295 23.028 23.0281 24.6307 22.7335 26.6653L22.7348 26.6667ZM27.3335 29.3333C26.2308 29.3333 25.3335 28.436 25.3335 27.3333C25.3335 26.2307 26.2308 25.3333 27.3335 25.3333C28.4361 25.3333 29.3335 26.2307 29.3335 27.3333C29.3335 28.436 28.4361 29.3333 27.3335 29.3333Z" fill="white"/>
</g>
<defs>
<clipPath id="clip0_0_4166">
<rect width="32" height="32" fill="white"/>
</clipPath>
</defs>
</svg>
