<svg width="32" height="33" viewBox="0 0 32 33" fill="none" xmlns="http://www.w3.org/2000/svg">
  <path d="M20.2287 9.8342L11.4474 18.6155C11.1927 18.8615 10.9895 19.1558 10.8498 19.4811C10.71 19.8065 10.6365 20.1564 10.6334 20.5105C10.6303 20.8645 10.6978 21.2157 10.8319 21.5434C10.9659 21.8711 11.1639 22.1689 11.4143 22.4193C11.6647 22.6696 11.9624 22.8676 12.2902 23.0017C12.6179 23.1358 12.969 23.2033 13.3231 23.2002C13.6772 23.1971 14.0271 23.1236 14.3525 22.9838C14.6778 22.844 14.972 22.6409 15.218 22.3862L23.77 13.6049C24.7415 12.599 25.2791 11.2518 25.267 9.8534C25.2548 8.45501 24.6939 7.11735 23.7051 6.1285C22.7162 5.13966 21.3786 4.57876 19.9802 4.56661C18.5818 4.55446 17.2346 5.09203 16.2287 6.06354L7.67538 14.8435C6.17496 16.344 5.33203 18.379 5.33203 20.5009C5.33203 22.6228 6.17496 24.6578 7.67538 26.1582C9.17579 27.6586 11.2108 28.5015 13.3327 28.5015C15.4546 28.5015 17.4896 27.6586 18.99 26.1582L27.3327 17.8342" stroke="white" stroke-width="1.5" stroke-linecap="round" stroke-linejoin="round" />
</svg>