<svg width="320" height="101" viewBox="0 0 320 101" fill="none" xmlns="http://www.w3.org/2000/svg">
  <path fill-rule="evenodd" clip-rule="evenodd" d="M128.112 36.6419C125.396 36.6419 122.874 36.1817 120.548 35.2602C118.222 34.3386 116.209 33.0514 114.511 31.3963C112.813 29.7423 111.489 27.8058 110.538 25.5879C109.587 23.3712 109.112 20.9483 109.112 18.3215C109.112 15.6947 109.587 13.273 110.538 11.054C111.489 8.83725 112.813 6.90076 114.511 5.24562C116.209 3.59163 118.212 2.30329 120.523 1.38175C122.832 0.461341 125.362 0 128.112 0C130.829 0 133.334 0.453368 135.626 1.35669C137.918 2.26114 139.922 3.54037 141.637 5.19436C143.352 6.8495 144.676 8.78599 145.61 11.0027C146.543 13.2217 147.011 15.6606 147.011 18.3215C147.011 20.9825 146.543 23.4213 145.61 25.6392C144.676 27.8582 143.352 29.7935 141.637 31.4475C139.922 33.1027 137.918 34.3819 135.626 35.2852C133.334 36.1897 130.829 36.6419 128.112 36.6419ZM128.112 32.0866C130.082 32.0866 131.907 31.7471 133.589 31.0637C135.269 30.3813 136.73 29.4188 137.969 28.1726C139.208 26.9275 140.177 25.4683 140.873 23.7972C141.569 22.125 141.917 20.3002 141.917 18.3215C141.917 16.3429 141.569 14.518 140.873 12.8458C140.177 11.1747 139.208 9.71551 137.969 8.47046C136.73 7.2254 135.269 6.26171 133.589 5.57825C131.907 4.89705 130.082 4.55532 128.112 4.55532C126.109 4.55532 124.266 4.89705 122.586 5.57825C120.904 6.26171 119.436 7.2254 118.18 8.47046C116.922 9.71551 115.946 11.1747 115.25 12.8458C114.553 14.518 114.205 16.3429 114.205 18.3215C114.205 20.3002 114.553 22.125 115.25 23.7972C115.946 25.4683 116.922 26.9275 118.18 28.1726C119.436 29.4188 120.904 30.3813 122.586 31.0637C124.266 31.7471 126.109 32.0866 128.112 32.0866Z" fill="#111111" />
  <path fill-rule="evenodd" clip-rule="evenodd" d="M96.8866 1.89385C94.679 0.905099 92.0132 0.409584 88.8894 0.409584H74.9825V36.2325H80.077V25.3323H88.8894C89.6732 25.3323 90.4281 25.3012 91.1541 25.2389L98.8221 36.2325H104.375L95.9162 24.2406C96.2489 24.1197 96.5724 23.9889 96.8866 23.848C99.0943 22.8581 100.792 21.4342 101.981 19.5752C103.169 17.7162 103.764 15.4892 103.764 12.8966C103.764 10.3039 103.169 8.06899 101.981 6.19287C100.792 4.31675 99.0943 2.88374 96.8866 1.89385ZM96.1485 6.96063C94.4669 5.5618 91.9962 4.86239 88.7364 4.86239H80.077V20.982H88.7364C91.9962 20.982 94.4669 20.2746 96.1485 18.8587C97.8289 17.4428 98.6702 15.455 98.6702 12.8966C98.6702 10.3381 97.8289 8.35947 96.1485 6.96063Z" fill="#111111" />
  <path d="M49.4631 36.6419C44.7768 36.6419 41.0917 35.2943 38.409 32.5992C35.7262 29.904 34.3849 25.9638 34.3849 20.7775V0.410079H39.4782V20.5724C39.4782 24.565 40.3524 27.4811 42.102 29.3242C43.8504 31.1662 46.3211 32.0866 49.5141 32.0866C52.74 32.0866 55.2265 31.1662 56.9761 29.3242C58.7245 27.4811 59.5999 24.565 59.5999 20.5724V0.410079H64.5413V20.7775C64.5413 25.9638 63.2079 29.904 60.5421 32.5992C57.8753 35.2943 54.1823 36.6419 49.4631 36.6419Z" fill="#111111" />
  <path d="M163.311 35.2852C165.621 36.1897 168.151 36.6419 170.902 36.6419C173.414 36.6419 175.851 36.258 178.212 35.4903C180.571 34.7225 182.635 33.5891 184.401 32.0866V18.1165H179.511V29.7726C178.593 30.3775 177.633 30.8506 176.632 31.1924C174.883 31.7893 173.058 32.0866 171.157 32.0866C169.119 32.0866 167.235 31.7471 165.502 31.0637C163.769 30.3813 162.267 29.4188 160.994 28.1726C159.72 26.9275 158.735 25.4604 158.039 23.7711C157.343 22.0829 156.995 20.266 156.995 18.3215C156.995 16.3429 157.343 14.5089 158.039 12.8196C158.735 11.1314 159.72 9.67223 160.994 8.44426C162.267 7.21629 163.779 6.26171 165.528 5.57825C167.277 4.89705 169.17 4.55532 171.208 4.55532C173.211 4.55532 175.07 4.88794 176.785 5.55319C178.5 6.21843 180.087 7.26755 181.549 8.70056L184.706 5.52699C183.076 3.68504 181.089 2.30329 178.747 1.38175C176.403 0.461341 173.822 0 171.004 0C168.219 0 165.672 0.453368 163.362 1.35669C161.053 2.26114 159.04 3.54037 157.326 5.19436C155.611 6.8495 154.278 8.78599 153.328 11.0027C152.376 13.2217 151.901 15.6606 151.901 18.3215C151.901 20.9825 152.376 23.4213 153.328 25.6392C154.278 27.8582 155.602 29.7935 157.301 31.4475C158.998 33.1027 161.002 34.3819 163.311 35.2852Z" fill="#111111" />
  <path fill-rule="evenodd" clip-rule="evenodd" d="M235.136 0.409584L218.988 36.2325H224.234L228.152 27.2767H247.112L251.029 36.2325H256.377L240.179 0.409584H235.136ZM245.321 23.1828L237.632 5.60466L229.943 23.1828H245.321Z" fill="#111111" />
  <path d="M272.067 36.6419C269.35 36.6419 266.751 36.225 264.273 35.3877C261.794 34.5528 259.842 33.4695 258.415 32.1379L260.3 28.1464C261.658 29.3413 263.389 30.3301 265.495 31.1149C267.601 31.8998 269.791 32.2916 272.067 32.2916C274.137 32.2916 275.819 32.0536 277.109 31.5751C278.4 31.0978 279.351 30.4417 279.962 29.6056C280.573 28.7695 280.879 27.8229 280.879 26.7658C280.879 25.5367 280.48 24.5479 279.682 23.7972C278.884 23.0466 277.849 22.4406 276.574 21.9804C275.302 21.519 273.9 21.1192 272.372 20.7775C270.845 20.4369 269.307 20.0359 267.762 19.5757C266.216 19.1143 264.808 18.5266 263.535 17.8089C262.261 17.0924 261.234 16.1299 260.453 14.9178C259.671 13.707 259.28 12.1464 259.28 10.2349C259.28 8.393 259.764 6.69572 260.733 5.1431C261.701 3.59163 263.194 2.34658 265.215 1.40795C267.236 0.469315 269.808 0 272.933 0C275.004 0 277.058 0.274527 279.096 0.819024C281.133 1.36466 282.899 2.14951 284.394 3.17357L282.713 7.26755C281.186 6.24349 279.572 5.50192 277.874 5.04058C276.176 4.58038 274.529 4.35028 272.933 4.35028C270.929 4.35028 269.282 4.60658 267.992 5.11804C266.7 5.62951 265.758 6.31297 265.164 7.16503C264.57 8.01823 264.273 8.97395 264.273 10.031C264.273 11.2932 264.672 12.3002 265.47 13.0497C266.267 13.8004 267.304 14.3984 268.577 14.8404C269.851 15.2846 271.252 15.6856 272.78 16.0433C274.307 16.4021 275.844 16.8042 277.39 17.2462C278.935 17.6905 280.344 18.2703 281.618 18.9868C282.891 19.7033 283.918 20.6578 284.699 21.8528C285.481 23.0466 285.872 24.5821 285.872 26.4582C285.872 28.2671 285.379 29.9462 284.394 31.4988C283.409 33.0514 281.89 34.2965 279.835 35.234C277.781 36.1737 275.191 36.6419 272.067 36.6419Z" fill="#111111" />
  <path d="M295.905 35.3877C298.385 36.225 300.983 36.6419 303.7 36.6419C306.823 36.6419 309.413 36.1737 311.468 35.234C313.522 34.2965 315.042 33.0514 316.027 31.4988C317.011 29.9462 317.505 28.2671 317.505 26.4582C317.505 24.5821 317.113 23.0466 316.332 21.8528C315.551 20.6578 314.525 19.7033 313.25 18.9868C311.977 18.2703 310.568 17.6905 309.022 17.2462C307.478 16.8042 305.94 16.4021 304.413 16.0433C302.884 15.6856 301.484 15.2846 300.21 14.8404C298.937 14.3984 297.9 13.8004 297.103 13.0497C296.305 12.3002 295.905 11.2932 295.905 10.031C295.905 8.97395 296.202 8.01823 296.797 7.16503C297.391 6.31297 298.333 5.62951 299.625 5.11804C300.915 4.60658 302.561 4.35028 304.566 4.35028C306.161 4.35028 307.808 4.58038 309.506 5.04058C311.204 5.50192 312.818 6.24349 314.346 7.26755L316.027 3.17357C314.532 2.14951 312.766 1.36466 310.729 0.819024C308.692 0.274527 306.636 0 304.566 0C301.441 0 298.868 0.469315 296.848 1.40795C294.827 2.34658 293.334 3.59163 292.365 5.1431C291.398 6.69572 290.913 8.393 290.913 10.2349C290.913 12.1464 291.304 13.707 292.085 14.9178C292.867 16.1299 293.894 17.0924 295.167 17.8089C296.441 18.5266 297.85 19.1143 299.394 19.5757C300.94 20.0359 302.477 20.4369 304.005 20.7775C305.533 21.1192 306.935 21.519 308.208 21.9804C309.481 22.4406 310.516 23.0466 311.315 23.7972C312.113 24.5479 312.512 25.5367 312.512 26.7658C312.512 27.8229 312.207 28.7695 311.595 29.6056C310.984 30.4417 310.032 31.0978 308.742 31.5751C307.452 32.0536 305.77 32.2916 303.7 32.2916C301.424 32.2916 299.233 31.8998 297.128 31.1149C295.022 30.3301 293.291 29.3413 291.932 28.1464L290.048 32.1379C291.474 33.4695 293.427 34.5528 295.905 35.3877Z" fill="#111111" />
  <path d="M5.65503 31.7799H26.4389V36.2327H0.560547V0.409793H25.7257V4.86259H5.65503V15.8642H23.5351V20.2144H5.65503V31.7799Z" fill="#111111" />
  <path d="M194.129 36.2325V0.409584H199.224V31.7797H218.53V36.2325H194.129Z" fill="#111111" />
  <path d="M102.27 76.3377C101.111 76.3377 100.002 76.1702 98.9433 75.8376C97.8843 75.5039 97.0429 75.0744 96.4216 74.5493L97.3752 72.3998C97.9682 72.868 98.7029 73.2575 99.5783 73.5696C100.455 73.8818 101.352 74.0378 102.27 74.0378C103.047 74.0378 103.675 73.9535 104.156 73.7827C104.636 73.6129 104.989 73.3828 105.216 73.0912C105.442 72.8007 105.555 72.4704 105.555 72.1013C105.555 71.648 105.392 71.2823 105.067 71.0044C104.742 70.7287 104.322 70.5077 103.806 70.3448C103.291 70.1819 102.718 70.0293 102.09 69.8869C101.462 69.7456 100.832 69.5793 100.204 69.3868C99.576 69.1943 99.0034 68.9471 98.4875 68.6418C97.9716 68.3366 97.552 67.9288 97.2266 67.4173C96.9012 66.907 96.7402 66.2543 96.7402 65.4591C96.7402 64.6504 96.9545 63.9088 97.3854 63.2345C97.8162 62.5601 98.4739 62.0213 99.356 61.6169C100.239 61.2125 101.358 61.0098 102.715 61.0098C103.605 61.0098 104.488 61.1237 105.364 61.3504C106.24 61.577 107.003 61.904 107.653 62.33L106.784 64.4806C106.12 64.082 105.435 63.7881 104.728 63.5967C104.022 63.4053 103.343 63.3085 102.694 63.3085C101.931 63.3085 101.313 63.4019 100.84 63.5853C100.366 63.771 100.02 64.0113 99.8016 64.3098C99.5828 64.6071 99.4728 64.9477 99.4728 65.3316C99.4728 65.7861 99.6316 66.1506 99.9491 66.4274C100.268 66.7042 100.685 66.9206 101.2 67.0767C101.716 67.2328 102.292 67.3854 102.927 67.5346C103.563 67.6838 104.195 67.8502 104.824 68.0347C105.452 68.2204 106.024 68.4607 106.54 68.758C107.055 69.0576 107.472 69.4609 107.79 69.9723C108.108 70.4826 108.267 71.1297 108.267 71.91C108.267 72.7039 108.052 73.4386 107.621 74.113C107.19 74.7874 106.529 75.3262 105.639 75.7305C104.75 76.1349 103.626 76.3377 102.27 76.3377Z" fill="#111111" />
  <path d="M128.207 71.3125L120.027 61.2228H117.759V76.1247H120.493V66.0351L128.673 76.1247H130.939V61.2228H128.207V71.3125Z" fill="#111111" />
  <path d="M141.789 76.3377C140.659 76.3377 139.61 76.1486 138.643 75.7738C137.674 75.3968 136.834 74.8648 136.121 74.1768C135.407 73.4888 134.852 72.6754 134.458 71.7391C134.062 70.8027 133.865 69.781 133.865 68.6737C133.865 67.5665 134.062 66.5447 134.458 65.6084C134.852 64.672 135.411 63.8587 136.131 63.1707C136.851 62.4826 137.693 61.9495 138.653 61.5736C139.613 61.1977 140.666 61.0098 141.811 61.0098C143.025 61.0098 144.134 61.2194 145.138 61.6386C146.14 62.0566 146.988 62.6774 147.68 63.4999L145.901 65.1823C145.363 64.6003 144.763 64.164 144.099 63.8724C143.435 63.583 142.715 63.4361 141.938 63.4361C141.16 63.4361 140.451 63.5648 139.808 63.82C139.164 64.0751 138.607 64.4374 138.134 64.9055C137.661 65.3749 137.294 65.9285 137.033 66.5664C136.771 67.2043 136.64 67.9071 136.64 68.6737C136.64 69.4404 136.771 70.1421 137.033 70.7811C137.294 71.419 137.661 71.9726 138.134 72.4419C138.607 72.9101 139.164 73.2723 139.808 73.5275C140.451 73.7827 141.16 73.9102 141.938 73.9102C142.715 73.9102 143.435 73.7656 144.099 73.474C144.763 73.1835 145.363 72.7392 145.901 72.1435L147.68 73.8465C146.988 74.6552 146.14 75.2738 145.138 75.6987C144.134 76.1247 143.018 76.3377 141.789 76.3377Z" fill="#111111" />
  <path d="M177.029 69.994L173.057 73.7827H180.058V76.1247H169.124V74.2725L175.016 68.6533C175.509 68.184 175.877 67.7727 176.117 67.4173C176.357 67.0631 176.516 66.7339 176.594 66.4275C176.672 66.1222 176.711 65.8351 176.711 65.5651C176.711 64.8851 176.478 64.3554 176.012 63.9795C175.546 63.6036 174.86 63.4156 173.956 63.4156C173.236 63.4156 172.582 63.5432 171.995 63.7984C171.409 64.0535 170.905 64.4443 170.481 64.9694L168.552 63.4794C169.131 62.6991 169.912 62.092 170.894 61.6591C171.875 61.2274 172.974 61.0098 174.189 61.0098C175.263 61.0098 176.199 61.1841 176.997 61.5315C177.795 61.8801 178.41 62.3722 178.841 63.0112C179.271 63.6492 179.487 64.4089 179.487 65.2895C179.487 65.7713 179.423 66.2509 179.296 66.7259C179.168 67.2021 178.929 67.701 178.575 68.2261C178.223 68.7512 177.707 69.3402 177.029 69.994Z" fill="#111111" />
  <path fill-rule="evenodd" clip-rule="evenodd" d="M184.667 75.4435C185.607 76.0392 186.663 76.3377 187.835 76.3377C189.022 76.3377 190.081 76.0392 191.013 75.4435C191.947 74.8477 192.685 73.9786 193.228 72.8349C193.772 71.6935 194.044 70.3049 194.044 68.6737C194.044 67.0414 193.772 65.6551 193.228 64.5125C192.685 63.37 191.947 62.4997 191.013 61.904C190.081 61.3082 189.022 61.0098 187.835 61.0098C186.663 61.0098 185.607 61.3082 184.667 61.904C183.728 62.4997 182.99 63.37 182.453 64.5125C181.916 65.6551 181.648 67.0414 181.648 68.6737C181.648 70.3049 181.916 71.6935 182.453 72.8349C182.99 73.9786 183.728 74.8477 184.667 75.4435ZM189.637 73.3669C189.128 73.7439 188.527 73.9319 187.835 73.9319C187.171 73.9319 186.582 73.7439 186.066 73.3669C185.55 72.9921 185.148 72.4134 184.858 71.6332C184.568 70.8517 184.423 69.8652 184.423 68.6737C184.423 67.4685 184.568 66.4775 184.858 65.7041C185.148 64.9306 185.55 64.3553 186.066 63.9794C186.582 63.6035 187.171 63.4156 187.835 63.4156C188.527 63.4156 189.128 63.6035 189.637 63.9794C190.145 64.3553 190.544 64.9306 190.834 65.7041C191.123 66.4775 191.268 67.4685 191.268 68.6737C191.268 69.8652 191.123 70.8517 190.834 71.6332C190.544 72.4134 190.145 72.9921 189.637 73.3669Z" fill="#111111" />
  <path fill-rule="evenodd" clip-rule="evenodd" d="M202.096 76.3377C200.924 76.3377 199.868 76.0392 198.928 75.4435C197.988 74.8477 197.25 73.9786 196.714 72.8349C196.178 71.6935 195.909 70.3049 195.909 68.6737C195.909 67.0414 196.178 65.6551 196.714 64.5125C197.25 63.37 197.988 62.4997 198.928 61.904C199.868 61.3082 200.924 61.0098 202.096 61.0098C203.284 61.0098 204.343 61.3082 205.275 61.904C206.208 62.4997 206.945 63.37 207.489 64.5125C208.033 65.6551 208.305 67.0414 208.305 68.6737C208.305 70.3049 208.033 71.6935 207.489 72.8349C206.945 73.9786 206.208 74.8477 205.275 75.4435C204.343 76.0392 203.284 76.3377 202.096 76.3377ZM202.096 73.9319C202.788 73.9319 203.389 73.7439 203.898 73.3669C204.406 72.9921 204.805 72.4134 205.094 71.6332C205.385 70.8517 205.53 69.8652 205.53 68.6737C205.53 67.4685 205.385 66.4775 205.094 65.7041C204.805 64.9306 204.406 64.3553 203.898 63.9794C203.389 63.6035 202.788 63.4156 202.096 63.4156C201.432 63.4156 200.842 63.6035 200.328 63.9794C199.812 64.3553 199.408 64.9306 199.119 65.7041C198.83 66.4775 198.686 67.4685 198.686 68.6737C198.686 69.8652 198.83 70.8517 199.119 71.6332C199.408 72.4134 199.812 72.9921 200.328 73.3669C200.842 73.7439 201.432 73.9319 202.096 73.9319Z" fill="#111111" />
  <path fill-rule="evenodd" clip-rule="evenodd" d="M213.137 75.4754C214.097 76.0506 215.248 76.3377 216.59 76.3377C217.607 76.3377 218.526 76.1384 219.346 75.7408C220.164 75.3444 220.814 74.7828 221.295 74.0595C221.774 73.335 222.015 72.4841 222.015 71.5056C222.015 70.5829 221.789 69.7775 221.337 69.0884C220.884 68.4015 220.278 67.8684 219.515 67.4925C218.752 67.1154 217.883 66.9286 216.908 66.9286C216.188 66.9286 215.52 67.0277 214.905 67.2259C214.291 67.4253 213.761 67.7192 213.317 68.1099C213.185 68.2256 213.061 68.3497 212.946 68.4821L212.946 68.4607C212.946 66.7725 213.355 65.4945 214.174 64.6287C214.994 63.7641 216.103 63.3301 217.501 63.3301C218.024 63.3301 218.521 63.3837 218.995 63.4896C219.468 63.5967 219.91 63.7846 220.32 64.0535L221.337 61.9678C220.856 61.642 220.273 61.4005 219.588 61.2444C218.904 61.0872 218.187 61.0098 217.437 61.0098C216.011 61.0098 214.75 61.315 213.655 61.9256C212.561 62.535 211.706 63.4292 211.091 64.6071C210.477 65.7861 210.169 67.2259 210.169 68.9289C210.169 70.5339 210.424 71.8815 210.932 72.975C211.442 74.0674 212.175 74.9013 213.137 75.4754ZM217.947 73.8567C217.509 74.0629 217.007 74.1665 216.442 74.1665C215.792 74.1665 215.238 74.0526 214.778 73.8259C214.319 73.5993 213.97 73.2928 213.73 72.9101C213.489 72.5262 213.369 72.1082 213.369 71.6548C213.369 71.157 213.499 70.7173 213.761 70.3346C214.022 69.9507 214.376 69.65 214.822 69.4301C215.266 69.2091 215.785 69.0998 216.378 69.0998C217.282 69.0998 218.003 69.3264 218.54 69.781C219.077 70.2355 219.346 70.8517 219.346 71.6332C219.346 72.1435 219.221 72.5911 218.974 72.975C218.727 73.3566 218.384 73.6517 217.947 73.8567Z" fill="#111111" />
  <path d="M111.001 61.2233H113.756V76.1252H111.001V61.2233Z" fill="#111111" />
  <path d="M161.454 73.8042H153.084V69.6954H160.245V67.4171H153.084V63.543H161.157V61.2226H150.328V76.1245H161.454V73.8042Z" fill="#111111" />
  <path d="M86.5904 71.0173H0V68.7994H86.5904V71.0173Z" fill="#111111" />
  <path d="M233.535 71.0173H320V68.7994H233.535V71.0173Z" fill="#111111" />
  <path d="M316.297 92.8372L311.911 98.5852V92.8372H310.862V100.288H311.837L316.234 94.5516V100.288H317.272V92.8372H316.297Z" fill="#504F5E" />
  <path d="M312.71 91.9327C313.026 92.1879 313.472 92.3155 314.051 92.3155C314.623 92.3155 315.067 92.1879 315.381 91.9327C315.695 91.6776 315.856 91.3188 315.863 90.8574H315.121C315.114 91.1342 315.013 91.3484 314.819 91.501C314.624 91.6537 314.369 91.73 314.051 91.73C313.726 91.73 313.468 91.6537 313.278 91.501C313.088 91.3484 312.988 91.1342 312.981 90.8574H312.228C312.235 91.3188 312.396 91.6776 312.71 91.9327Z" fill="#504F5E" />
  <path fill-rule="evenodd" clip-rule="evenodd" d="M173.481 100.085C173.964 100.276 174.489 100.373 175.054 100.373C175.619 100.373 176.14 100.28 176.616 100.091C177.093 99.9026 177.511 99.6372 177.867 99.2932C178.223 98.9492 178.498 98.5459 178.693 98.0846C178.887 97.6232 178.985 97.1163 178.985 96.5627C178.985 96.0091 178.887 95.5011 178.693 95.0408C178.498 94.5795 178.223 94.1774 177.867 93.8322C177.511 93.4882 177.093 93.2228 176.616 93.0337C176.14 92.8469 175.619 92.7524 175.054 92.7524C174.481 92.7524 173.955 92.8481 173.475 93.0394C172.994 93.2308 172.578 93.4985 172.224 93.8425C171.872 94.1877 171.596 94.5909 171.399 95.0511C171.201 95.5124 171.102 96.0159 171.102 96.5627C171.102 97.1095 171.201 97.613 171.399 98.0743C171.596 98.5357 171.872 98.9378 172.224 99.2829C172.578 99.6269 172.997 99.8946 173.481 100.085ZM176.193 99.2134C175.843 99.3558 175.463 99.4253 175.054 99.4253C174.637 99.4253 174.254 99.3558 173.904 99.2134C173.555 99.071 173.248 98.8717 172.988 98.6108C172.727 98.3523 172.523 98.0493 172.379 97.7018C172.234 97.3533 172.161 96.9739 172.161 96.5627C172.161 96.1515 172.234 95.7722 172.379 95.4236C172.523 95.0762 172.727 94.7732 172.988 94.5134C173.248 94.2549 173.555 94.0544 173.904 93.912C174.254 93.7696 174.637 93.699 175.054 93.699C175.463 93.699 175.843 93.7696 176.193 93.912C176.542 94.0544 176.846 94.2549 177.104 94.5134C177.362 94.7732 177.563 95.0762 177.708 95.4236C177.852 95.7722 177.924 96.1515 177.924 96.5627C177.924 96.9739 177.852 97.3533 177.708 97.7018C177.563 98.0493 177.362 98.3523 177.104 98.6108C176.846 98.8717 176.542 99.071 176.193 99.2134Z" fill="#504F5E" />
  <path d="M155.134 100.288L152.732 97.0098H151.182V100.288H150.144V92.8372H151.182V96.0734H152.751L155.082 92.8372H156.216L153.566 96.4491L156.343 100.288H155.134Z" fill="#504F5E" />
  <path d="M6.00873 93.7633L6.01894 92.8372H1.15576V100.288H2.20459L2.19479 93.7633H6.00873Z" fill="#504F5E" />
  <path fill-rule="evenodd" clip-rule="evenodd" d="M26.1388 93.1459C25.6796 92.9397 25.1251 92.8372 24.4754 92.8372H21.5829V100.288H22.6419V98.0316H24.4754C25.1251 98.0316 25.6796 97.9268 26.1388 97.7172C26.598 97.5087 26.9506 97.2103 27.1978 96.823C27.445 96.4368 27.5686 95.9732 27.5686 95.4344C27.5686 94.8956 27.445 94.4297 27.1978 94.0401C26.9506 93.6494 26.598 93.3509 26.1388 93.1459ZM25.9846 94.1996C25.6353 93.9091 25.1217 93.7633 24.4436 93.7633H22.6419V97.1055H24.4436C25.1217 97.1055 25.6353 96.9597 25.9846 96.6692C26.3349 96.3787 26.5096 95.9664 26.5096 95.4344C26.5096 94.9024 26.3349 94.4901 25.9846 94.1996Z" fill="#504F5E" />
  <path d="M48.2094 92.8375L45.7401 97.5656L43.3349 92.8375H42.201L45.1825 98.4855L45.0198 98.745C44.7726 99.1493 44.4937 99.3851 44.183 99.4523C43.8724 99.5195 43.5322 99.4865 43.166 99.351L42.8904 100.203C43.2782 100.373 43.6615 100.446 44.039 100.421C44.4177 100.397 44.7704 100.265 45.0992 100.028C45.428 99.7895 45.7149 99.4364 45.9632 98.9682L49.2582 92.8375H48.2094Z" fill="#504F5E" />
  <path fill-rule="evenodd" clip-rule="evenodd" d="M112.987 92.8372L109.628 100.288H110.719L111.534 98.4246H115.477L116.292 100.288H117.406L114.036 92.8372H112.987ZM115.105 97.5736L113.506 93.9177L111.907 97.5736H115.105Z" fill="#504F5E" />
  <path d="M198.702 99.3837L196.021 94.8894V100.288H195.004V92.8372H195.873L198.965 98.071L202.018 92.8372H202.887L202.897 100.288H201.88L201.871 94.855L199.189 99.3837H198.702Z" fill="#504F5E" />
  <path fill-rule="evenodd" clip-rule="evenodd" d="M241.485 100.288L244.843 92.8372H245.892L249.262 100.288H248.149L247.334 98.4246H243.391L242.576 100.288H241.485ZM245.363 93.9177L246.962 97.5736H243.763L245.363 93.9177Z" fill="#504F5E" />
  <path d="M293.21 94.5516L288.814 100.288H287.839V92.8372H288.888V98.5852L293.274 92.8372H294.249V100.288H293.21V94.5516Z" fill="#504F5E" />
  <path d="M64.652 92.8372V100.288H65.7008V93.7633H70.0028V100.288H71.0402V92.8372H64.652Z" fill="#504F5E" />
  <path d="M87.6544 100.288V92.8372H94.0427V100.288H93.0052V93.7633H88.7033V100.288H87.6544Z" fill="#504F5E" />
  <path d="M219.511 92.8372V100.288H220.56V93.7633H224.862V100.288H225.899V92.8372H219.511Z" fill="#504F5E" />
  <path d="M264.848 100.288H265.907V96.9676H270.166V100.288H271.226V92.8372H270.166V96.0415H265.907V92.8372H264.848V100.288Z" fill="#504F5E" />
</svg>