<svg width="20" height="20" viewBox="0 0 20 20" fill="none" xmlns="http://www.w3.org/2000/svg">
  <path d="M0 9.6C0 5.07333 0 2.81333 1.4 1.4C2.82 0 5.08 0 9.6 0H10.4C14.9267 0 17.1867 0 18.6 1.4C20 2.82 20 5.08 20 9.6V10.4C20 14.9267 20 17.1867 18.6 18.6C17.18 20 14.92 20 10.4 20H9.6C5.07333 20 2.81333 20 1.4 18.6C0 17.18 0 14.92 0 10.4V9.6Z" fill="#EC503C" />
  <path d="M10.64 14.4067C6.07996 14.4067 3.47996 11.2867 3.37329 6.08674H5.66662C5.73996 9.90008 7.41996 11.5134 8.75329 11.8467V6.08674H10.9066V9.37341C12.22 9.23341 13.6066 7.73341 14.0733 6.08008H16.22C16.0449 6.93592 15.6953 7.74648 15.1929 8.4611C14.6904 9.17572 14.0461 9.77906 13.3 10.2334C14.1326 10.6478 14.8679 11.234 15.4574 11.9534C16.0469 12.6728 16.4772 13.5089 16.72 14.4067H14.3533C13.8466 12.8267 12.58 11.6001 10.9066 11.4334V14.4067H10.6466H10.64Z" fill="white" />
</svg>