<svg width="32" height="32" viewBox="0 0 32 32" fill="none" xmlns="http://www.w3.org/2000/svg">
  <path fill-rule="evenodd" clip-rule="evenodd" d="M13.2103 4.95817C14.4343 2.78217 17.5663 2.78217 18.7889 4.95817L27.7169 20.8302C28.9169 22.9635 27.3756 25.5982 24.9303 25.5982H7.07026C4.62226 25.5982 3.08093 22.9648 4.28093 20.8302L13.2103 4.95817ZM17.5996 20.7995C17.5996 21.2239 17.431 21.6308 17.131 21.9309C16.8309 22.2309 16.4239 22.3995 15.9996 22.3995C15.5752 22.3995 15.1683 22.2309 14.8682 21.9309C14.5682 21.6308 14.3996 21.2239 14.3996 20.7995C14.3996 20.3752 14.5682 19.9682 14.8682 19.6681C15.1683 19.3681 15.5752 19.1995 15.9996 19.1995C16.4239 19.1995 16.8309 19.3681 17.131 19.6681C17.431 19.9682 17.5996 20.3752 17.5996 20.7995ZM15.9996 7.9995C15.5752 7.9995 15.1683 8.16808 14.8682 8.46813C14.5682 8.76819 14.3996 9.17516 14.3996 9.5995V14.3995C14.3996 14.8239 14.5682 15.2308 14.8682 15.5309C15.1683 15.8309 15.5752 15.9995 15.9996 15.9995C16.4239 15.9995 16.8309 15.8309 17.131 15.5309C17.431 15.2308 17.5996 14.8239 17.5996 14.3995V9.5995C17.5996 9.17516 17.431 8.76819 17.131 8.46813C16.8309 8.16808 16.4239 7.9995 15.9996 7.9995Z" fill="#A4A3AD" />
</svg>