<svg width="32" height="32" viewBox="0 0 32 32" fill="none" xmlns="http://www.w3.org/2000/svg">
  <path fill-rule="evenodd" clip-rule="evenodd" d="M18.8114 3.25366C19.031 3.3119 19.2356 3.41622 19.4117 3.55967C19.5878 3.70313 19.7313 3.88243 19.8328 4.08566C20.6061 5.63233 21.1834 6.57099 21.7634 7.33366C22.3528 8.10433 22.9741 8.73366 23.9208 9.68033C24.9618 10.7196 25.7875 11.9542 26.3503 13.3133C26.9132 14.6724 27.2022 16.1293 27.2008 17.6003C27.1369 20.5284 25.9288 23.3151 23.8354 25.3633C21.7419 27.4116 18.9296 28.5586 16.0008 28.5586C13.072 28.5586 10.2596 27.4116 8.16619 25.3633C6.07274 23.3151 4.86468 20.5284 4.80078 17.6003C4.80078 14.7363 5.89411 11.867 8.08078 9.68033C8.30454 9.45685 8.58951 9.30469 8.89969 9.24307C9.20987 9.18145 9.53136 9.21313 9.82355 9.33411C10.1157 9.4551 10.3655 9.65996 10.5414 9.92282C10.7172 10.1857 10.8112 10.4947 10.8114 10.811C10.8114 12.603 10.9234 13.9683 11.4488 15.0577C11.7368 15.6563 12.1861 16.2417 12.9608 16.7643C13.1778 14.8381 13.5059 12.926 13.9434 11.0377C14.3034 9.49099 14.7514 7.94966 15.2861 6.66299C15.5528 6.01766 15.8554 5.40699 16.1981 4.87633C16.5314 4.36166 16.9581 3.83899 17.5128 3.46966C17.7016 3.34382 17.9151 3.2596 18.139 3.22259C18.3629 3.18558 18.5921 3.19529 18.8114 3.25366ZM19.3941 24.1937C18.7233 24.8659 17.8681 25.324 16.9368 25.5098C16.0054 25.6956 15.0399 25.6008 14.1625 25.2375C13.285 24.8741 12.5352 24.2584 12.008 23.4685C11.4807 22.6786 11.1998 21.75 11.2008 20.8003C11.2008 20.8003 12.6074 21.6003 15.2008 21.6003C15.2008 20.0003 16.0008 15.2003 17.2008 14.4003C18.0008 16.0003 18.4581 16.4697 19.3941 17.407C19.8408 17.8519 20.195 18.3808 20.4364 18.9631C20.6778 19.5455 20.8017 20.1699 20.8008 20.8003C20.8008 22.0297 20.3314 23.2577 19.3941 24.1937Z" fill="#EC503C" />
</svg>