<svg width="32" height="32" viewBox="0 0 32 32" fill="none" xmlns="http://www.w3.org/2000/svg">
  <g clip-path="url(#clip0_94_5763)">
    <path d="M29.3334 29.3333V4C29.3334 1.79467 27.5387 0 25.3334 0H6.66673C4.46139 0 2.66673 1.79467 2.66673 4V29.3333H6.10352e-05V32H32.0001V29.3333H29.3334ZM26.6667 29.3333H17.3334V17.3333H26.6667V29.3333ZM26.6667 4V14.6667H17.3334V2.66667H25.3334C26.0681 2.66667 26.6667 3.26533 26.6667 4ZM6.66673 2.66667H14.6667V14.6667H5.33339V4C5.33339 3.26533 5.93206 2.66667 6.66673 2.66667ZM5.33339 17.3333H14.6667V29.3333H5.33339V17.3333Z" fill="#EC503C" />
  </g>
  <defs>
    <clipPath id="clip0_94_5763">
      <rect width="32" height="32" fill="white" />
    </clipPath>
  </defs>
</svg>